<svg width="93" height="79" viewBox="0 0 93 79" fill="none" xmlns="http://www.w3.org/2000/svg">
<rect opacity="0.1" x="0.283203" width="91.9572" height="79" rx="15" fill="#161C2D"/>
<path d="M55.7377 32.359C53.2758 30.253 50.0596 29.2 46.8435 29.2V40L37.9492 47.641C42.8625 51.862 50.8139 51.862 55.7272 47.641C60.6405 43.42 60.6405 36.58 55.7377 32.359Z" fill="#161C2D"/>
<path opacity="0.5" fill-rule="evenodd" clip-rule="evenodd" d="M25.8906 40C25.8906 30.055 35.2668 22 46.8429 22C58.419 22 67.7952 30.055 67.7952 40C67.7952 49.936 58.419 58 46.8429 58C35.2668 58 25.8906 49.945 25.8906 40ZM30.0811 40C30.0811 47.956 37.582 54.4 46.8429 54.4C56.1038 54.4 63.6047 47.956 63.6047 40C63.6047 32.044 56.1038 25.6 46.8429 25.6C37.582 25.6 30.0811 32.044 30.0811 40Z" fill="#161C2D"/>
</svg>
