<svg width="143" height="112" viewBox="0 0 143 112" fill="none" xmlns="http://www.w3.org/2000/svg">
<path fill-rule="evenodd" clip-rule="evenodd" d="M3.49204 20.0001C4.41045 20.0001 5.3114 19.6806 5.96092 19.1211C6.61219 18.5631 6.98409 17.7906 6.98409 17.0001C6.98409 16.2096 6.61219 15.4371 5.96092 14.8791C5.3114 14.3196 4.41045 14.0001 3.49204 14.0001C2.57189 14.0001 1.67269 14.3196 1.02142 14.8791C0.371903 15.4371 0 16.2096 0 17.0001C0 17.7906 0.371903 18.5631 1.02142 19.1211C1.67269 19.6806 2.57189 20.0001 3.49204 20.0001Z" fill="#130D3A"/>
<path fill-rule="evenodd" clip-rule="evenodd" d="M41.8954 20.0001H41.9129C43.8374 20.0001 45.3962 18.6561 45.3962 17.0001C45.3962 15.3441 43.8374 14.0001 41.9129 14.0001H41.8954C39.9726 14.0001 38.4121 15.3441 38.4121 17.0001C38.4121 18.6561 39.9726 20.0001 41.8954 20.0001Z" fill="#130D3A"/>
<path fill-rule="evenodd" clip-rule="evenodd" d="M23.2724 20.0001H23.2898C25.2126 20.0001 26.7732 18.6561 26.7732 17.0001C26.7732 15.3441 25.2126 14.0001 23.2898 14.0001H23.2724C21.3496 14.0001 19.7891 15.3441 19.7891 17.0001C19.7891 18.6561 21.3496 20.0001 23.2724 20.0001Z" fill="#130D3A"/>
<path fill-rule="evenodd" clip-rule="evenodd" d="M61.6932 20.0001C62.6116 20.0001 63.5126 19.6806 64.1621 19.1211C64.8134 18.5631 65.1853 17.7906 65.1853 17.0001C65.1853 16.2096 64.8134 15.4371 64.1621 14.8791C63.5126 14.3196 62.6116 14.0001 61.6932 14.0001C60.7731 14.0001 59.8739 14.3196 59.2226 14.8791C58.5731 15.4371 58.2012 16.2096 58.2012 17.0001C58.2012 17.7906 58.5731 18.5631 59.2226 19.1211C59.8739 19.6806 60.7731 20.0001 61.6932 20.0001Z" fill="#130D3A"/>
<path fill-rule="evenodd" clip-rule="evenodd" d="M81.4803 20.0001C82.4005 20.0001 83.2997 19.6806 83.9509 19.1211C84.6005 18.5631 84.9724 17.7906 84.9724 17.0001C84.9724 16.2096 84.6005 15.4371 83.9509 14.8791C83.2997 14.3196 82.4005 14.0001 81.4803 14.0001C80.5619 14.0001 79.661 14.3196 79.0115 14.8791C78.3602 15.4371 77.9883 16.2096 77.9883 17.0001C77.9883 17.7906 78.3602 18.5631 79.0115 19.1211C79.661 19.6806 80.5619 20.0001 81.4803 20.0001Z" fill="#130D3A"/>
<path fill-rule="evenodd" clip-rule="evenodd" d="M119.886 20.0001H119.903C121.828 20.0001 123.386 18.6561 123.386 17.0001C123.386 15.3441 121.828 14.0001 119.903 14.0001H119.886C117.963 14.0001 116.402 15.3441 116.402 17.0001C116.402 18.6561 117.963 20.0001 119.886 20.0001Z" fill="#130D3A"/>
<path fill-rule="evenodd" clip-rule="evenodd" d="M100.097 20.0001H100.114C102.037 20.0001 103.597 18.6561 103.597 17.0001C103.597 15.3441 102.037 14.0001 100.114 14.0001H100.097C98.1738 14.0001 96.6133 15.3441 96.6133 17.0001C96.6133 18.6561 98.1738 20.0001 100.097 20.0001Z" fill="#130D3A"/>
<mask id="mask0_111_2865" style="mask-type:luminance" maskUnits="userSpaceOnUse" x="135" y="13" width="8" height="8">
<path fill-rule="evenodd" clip-rule="evenodd" d="M135.379 13.7879H142.828V20.1879H135.379V13.7879Z" fill="white"/>
</mask>
<g mask="url(#mask0_111_2865)">
<path fill-rule="evenodd" clip-rule="evenodd" d="M139.104 20.1879C140.083 20.1879 141.044 19.8471 141.737 19.2503C142.432 18.6551 142.829 17.8311 142.829 16.9879C142.829 16.1447 142.432 15.3207 141.737 14.7255C141.044 14.1287 140.083 13.7879 139.104 13.7879C138.122 13.7879 137.163 14.1287 136.468 14.7255C135.776 15.3207 135.379 16.1447 135.379 16.9879C135.379 17.8311 135.776 18.6551 136.468 19.2503C137.163 19.8471 138.122 20.1879 139.104 20.1879Z" fill="#130D3A"/>
</g>
<path fill-rule="evenodd" clip-rule="evenodd" d="M3.49204 7.00006C4.41045 7.00006 5.3114 6.68056 5.96092 6.12106C6.61219 5.56306 6.98409 4.78906 6.98409 4.00006C6.98409 3.20956 6.61219 2.43706 5.96092 1.87756C5.3114 1.31956 4.41045 1.00006 3.49204 1.00006C2.57189 1.00006 1.67269 1.31956 1.02142 1.87756C0.371903 2.43706 0 3.20956 0 4.00006C0 4.78906 0.371903 5.56306 1.02142 6.12106C1.67269 6.68056 2.57189 7.00006 3.49204 7.00006Z" fill="#130D3A"/>
<path fill-rule="evenodd" clip-rule="evenodd" d="M41.8954 7.00006H41.9129C43.8374 7.00006 45.3962 5.65606 45.3962 4.00006C45.3962 2.34406 43.8374 1.00006 41.9129 1.00006H41.8954C39.9726 1.00006 38.4121 2.34406 38.4121 4.00006C38.4121 5.65606 39.9726 7.00006 41.8954 7.00006Z" fill="#130D3A"/>
<path fill-rule="evenodd" clip-rule="evenodd" d="M23.2724 7.00006H23.2898C25.2126 7.00006 26.7732 5.65606 26.7732 4.00006C26.7732 2.34406 25.2126 1.00006 23.2898 1.00006H23.2724C21.3496 1.00006 19.7891 2.34406 19.7891 4.00006C19.7891 5.65606 21.3496 7.00006 23.2724 7.00006Z" fill="#130D3A"/>
<path fill-rule="evenodd" clip-rule="evenodd" d="M61.6932 7.00006C62.6116 7.00006 63.5126 6.68056 64.1621 6.12106C64.8134 5.56306 65.1853 4.78906 65.1853 4.00006C65.1853 3.20956 64.8134 2.43706 64.1621 1.87756C63.5126 1.31956 62.6116 1.00006 61.6932 1.00006C60.7731 1.00006 59.8739 1.31956 59.2226 1.87756C58.5731 2.43706 58.2012 3.20956 58.2012 4.00006C58.2012 4.78906 58.5731 5.56306 59.2226 6.12106C59.8739 6.68056 60.7731 7.00006 61.6932 7.00006Z" fill="#130D3A"/>
<path fill-rule="evenodd" clip-rule="evenodd" d="M81.4803 7.00006C82.4005 7.00006 83.2997 6.68056 83.9509 6.12106C84.6005 5.56306 84.9724 4.78906 84.9724 4.00006C84.9724 3.20956 84.6005 2.43706 83.9509 1.87756C83.2997 1.31956 82.4005 1.00006 81.4803 1.00006C80.5619 1.00006 79.661 1.31956 79.0115 1.87756C78.3602 2.43706 77.9883 3.20956 77.9883 4.00006C77.9883 4.78906 78.3602 5.56306 79.0115 6.12106C79.661 6.68056 80.5619 7.00006 81.4803 7.00006Z" fill="#130D3A"/>
<path fill-rule="evenodd" clip-rule="evenodd" d="M119.886 7.00006H119.903C121.828 7.00006 123.386 5.65606 123.386 4.00006C123.386 2.34406 121.828 1.00006 119.903 1.00006H119.886C117.963 1.00006 116.402 2.34406 116.402 4.00006C116.402 5.65606 117.963 7.00006 119.886 7.00006Z" fill="#130D3A"/>
<path fill-rule="evenodd" clip-rule="evenodd" d="M100.097 7.00006H100.114C102.037 7.00006 103.597 5.65606 103.597 4.00006C103.597 2.34406 102.037 1.00006 100.114 1.00006H100.097C98.1738 1.00006 96.6133 2.34406 96.6133 4.00006C96.6133 5.65606 98.1738 7.00006 100.097 7.00006Z" fill="#130D3A"/>
<mask id="mask1_111_2865" style="mask-type:luminance" maskUnits="userSpaceOnUse" x="135" y="0" width="8" height="7">
<path fill-rule="evenodd" clip-rule="evenodd" d="M135.379 0.443237H142.828V6.84324H135.379V0.443237Z" fill="white"/>
</mask>
<g mask="url(#mask1_111_2865)">
<path fill-rule="evenodd" clip-rule="evenodd" d="M139.104 6.84324C140.083 6.84324 141.044 6.50244 141.737 5.90564C142.432 5.31044 142.829 4.48484 142.829 3.64324C142.829 2.80004 142.432 1.97604 141.737 1.37924C141.044 0.784037 140.083 0.443237 139.104 0.443237C138.122 0.443237 137.163 0.784037 136.468 1.37924C135.776 1.97604 135.379 2.80004 135.379 3.64324C135.379 4.48484 135.776 5.31044 136.468 5.90564C137.163 6.50244 138.122 6.84324 139.104 6.84324Z" fill="#130D3A"/>
</g>
<path fill-rule="evenodd" clip-rule="evenodd" d="M3.49204 33.0001C4.41045 33.0001 5.3114 32.6806 5.96092 32.1211C6.61219 31.5631 6.98409 30.7906 6.98409 30.0001C6.98409 29.2111 6.61219 28.4371 5.96092 27.8791C5.3114 27.3196 4.41045 27.0001 3.49204 27.0001C2.57189 27.0001 1.67269 27.3196 1.02142 27.8791C0.371903 28.4371 0 29.2111 0 30.0001C0 30.7906 0.371903 31.5631 1.02142 32.1211C1.67269 32.6806 2.57189 33.0001 3.49204 33.0001Z" fill="#130D3A"/>
<path fill-rule="evenodd" clip-rule="evenodd" d="M41.8954 33.0001H41.9129C43.8374 33.0001 45.3962 31.6561 45.3962 30.0001C45.3962 28.3441 43.8374 27.0001 41.9129 27.0001H41.8954C39.9726 27.0001 38.4121 28.3441 38.4121 30.0001C38.4121 31.6561 39.9726 33.0001 41.8954 33.0001Z" fill="#130D3A"/>
<path fill-rule="evenodd" clip-rule="evenodd" d="M23.2724 33.0001H23.2898C25.2126 33.0001 26.7732 31.6561 26.7732 30.0001C26.7732 28.3441 25.2126 27.0001 23.2898 27.0001H23.2724C21.3496 27.0001 19.7891 28.3441 19.7891 30.0001C19.7891 31.6561 21.3496 33.0001 23.2724 33.0001Z" fill="#130D3A"/>
<path fill-rule="evenodd" clip-rule="evenodd" d="M61.6932 33.0001C62.6116 33.0001 63.5126 32.6806 64.1621 32.1211C64.8134 31.5631 65.1853 30.7906 65.1853 30.0001C65.1853 29.2111 64.8134 28.4371 64.1621 27.8791C63.5126 27.3196 62.6116 27.0001 61.6932 27.0001C60.7731 27.0001 59.8739 27.3196 59.2226 27.8791C58.5731 28.4371 58.2012 29.2111 58.2012 30.0001C58.2012 30.7906 58.5731 31.5631 59.2226 32.1211C59.8739 32.6806 60.7731 33.0001 61.6932 33.0001Z" fill="#130D3A"/>
<path fill-rule="evenodd" clip-rule="evenodd" d="M81.4803 33.0001C82.4005 33.0001 83.2997 32.6806 83.9509 32.1211C84.6005 31.5631 84.9724 30.7906 84.9724 30.0001C84.9724 29.2111 84.6005 28.4371 83.9509 27.8791C83.2997 27.3196 82.4005 27.0001 81.4803 27.0001C80.5619 27.0001 79.661 27.3196 79.0115 27.8791C78.3602 28.4371 77.9883 29.2111 77.9883 30.0001C77.9883 30.7906 78.3602 31.5631 79.0115 32.1211C79.661 32.6806 80.5619 33.0001 81.4803 33.0001Z" fill="#130D3A"/>
<path fill-rule="evenodd" clip-rule="evenodd" d="M119.886 33.0001H119.903C121.828 33.0001 123.386 31.6561 123.386 30.0001C123.386 28.3441 121.828 27.0001 119.903 27.0001H119.886C117.963 27.0001 116.402 28.3441 116.402 30.0001C116.402 31.6561 117.963 33.0001 119.886 33.0001Z" fill="#130D3A"/>
<path fill-rule="evenodd" clip-rule="evenodd" d="M100.097 33.0001H100.114C102.037 33.0001 103.597 31.6561 103.597 30.0001C103.597 28.3441 102.037 27.0001 100.114 27.0001H100.097C98.1738 27.0001 96.6133 28.3441 96.6133 30.0001C96.6133 31.6561 98.1738 33.0001 100.097 33.0001Z" fill="#130D3A"/>
<mask id="mask2_111_2865" style="mask-type:luminance" maskUnits="userSpaceOnUse" x="135" y="27" width="8" height="7">
<path fill-rule="evenodd" clip-rule="evenodd" d="M135.379 27.1324H142.828V33.5324H135.379V27.1324Z" fill="white"/>
</mask>
<g mask="url(#mask2_111_2865)">
<path fill-rule="evenodd" clip-rule="evenodd" d="M139.104 33.5324C140.083 33.5324 141.044 33.1916 141.737 32.5948C142.432 31.9996 142.829 31.1756 142.829 30.3324C142.829 29.4908 142.432 28.6652 141.737 28.07C141.044 27.4732 140.083 27.1324 139.104 27.1324C138.122 27.1324 137.163 27.4732 136.468 28.07C135.776 28.6652 135.379 29.4908 135.379 30.3324C135.379 31.1756 135.776 31.9996 136.468 32.5948C137.163 33.1916 138.122 33.5324 139.104 33.5324Z" fill="#130D3A"/>
</g>
<path fill-rule="evenodd" clip-rule="evenodd" d="M3.49204 46.0001C4.41045 46.0001 5.3114 45.6806 5.96092 45.1211C6.61219 44.5631 6.98409 43.7906 6.98409 43.0001C6.98409 42.2096 6.61219 41.4371 5.96092 40.8791C5.3114 40.3196 4.41045 40.0001 3.49204 40.0001C2.57189 40.0001 1.67269 40.3196 1.02142 40.8791C0.371903 41.4371 0 42.2096 0 43.0001C0 43.7906 0.371903 44.5631 1.02142 45.1211C1.67269 45.6806 2.57189 46.0001 3.49204 46.0001Z" fill="#130D3A"/>
<path fill-rule="evenodd" clip-rule="evenodd" d="M41.8954 46.0001H41.9129C43.8374 46.0001 45.3962 44.6561 45.3962 43.0001C45.3962 41.3441 43.8374 40.0001 41.9129 40.0001H41.8954C39.9726 40.0001 38.4121 41.3441 38.4121 43.0001C38.4121 44.6561 39.9726 46.0001 41.8954 46.0001Z" fill="#130D3A"/>
<path fill-rule="evenodd" clip-rule="evenodd" d="M23.2724 46.0001H23.2898C25.2126 46.0001 26.7732 44.6561 26.7732 43.0001C26.7732 41.3441 25.2126 40.0001 23.2898 40.0001H23.2724C21.3496 40.0001 19.7891 41.3441 19.7891 43.0001C19.7891 44.6561 21.3496 46.0001 23.2724 46.0001Z" fill="#130D3A"/>
<path fill-rule="evenodd" clip-rule="evenodd" d="M61.6932 46.0001C62.6116 46.0001 63.5126 45.6806 64.1621 45.1211C64.8134 44.5631 65.1853 43.7906 65.1853 43.0001C65.1853 42.2096 64.8134 41.4371 64.1621 40.8791C63.5126 40.3196 62.6116 40.0001 61.6932 40.0001C60.7731 40.0001 59.8739 40.3196 59.2226 40.8791C58.5731 41.4371 58.2012 42.2096 58.2012 43.0001C58.2012 43.7906 58.5731 44.5631 59.2226 45.1211C59.8739 45.6806 60.7731 46.0001 61.6932 46.0001Z" fill="#130D3A"/>
<path fill-rule="evenodd" clip-rule="evenodd" d="M81.4803 46.0001C82.4005 46.0001 83.2997 45.6806 83.9509 45.1211C84.6005 44.5631 84.9724 43.7906 84.9724 43.0001C84.9724 42.2096 84.6005 41.4371 83.9509 40.8791C83.2997 40.3196 82.4005 40.0001 81.4803 40.0001C80.5619 40.0001 79.661 40.3196 79.0115 40.8791C78.3602 41.4371 77.9883 42.2096 77.9883 43.0001C77.9883 43.7906 78.3602 44.5631 79.0115 45.1211C79.661 45.6806 80.5619 46.0001 81.4803 46.0001Z" fill="#130D3A"/>
<path fill-rule="evenodd" clip-rule="evenodd" d="M119.886 46.0001H119.903C121.828 46.0001 123.386 44.6561 123.386 43.0001C123.386 41.3441 121.828 40.0001 119.903 40.0001H119.886C117.963 40.0001 116.402 41.3441 116.402 43.0001C116.402 44.6561 117.963 46.0001 119.886 46.0001Z" fill="#130D3A"/>
<path fill-rule="evenodd" clip-rule="evenodd" d="M100.097 46.0001H100.114C102.037 46.0001 103.597 44.6561 103.597 43.0001C103.597 41.3441 102.037 40.0001 100.114 40.0001H100.097C98.1738 40.0001 96.6133 41.3441 96.6133 43.0001C96.6133 44.6561 98.1738 46.0001 100.097 46.0001Z" fill="#130D3A"/>
<mask id="mask3_111_2865" style="mask-type:luminance" maskUnits="userSpaceOnUse" x="135" y="40" width="8" height="7">
<path fill-rule="evenodd" clip-rule="evenodd" d="M135.379 40.4768H142.828V46.8768H135.379V40.4768Z" fill="white"/>
</mask>
<g mask="url(#mask3_111_2865)">
<path fill-rule="evenodd" clip-rule="evenodd" d="M139.104 46.8768C140.083 46.8768 141.044 46.536 141.737 45.9392C142.432 45.344 142.829 44.52 142.829 43.6768C142.829 42.8336 142.432 42.0096 141.737 41.4144C141.044 40.8176 140.083 40.4768 139.104 40.4768C138.122 40.4768 137.163 40.8176 136.468 41.4144C135.776 42.0096 135.379 42.8336 135.379 43.6768C135.379 44.52 135.776 45.344 136.468 45.9392C137.163 46.536 138.122 46.8768 139.104 46.8768Z" fill="#130D3A"/>
</g>
<path fill-rule="evenodd" clip-rule="evenodd" d="M3.49204 60.0001C4.41045 60.0001 5.3114 59.6806 5.96092 59.1211C6.61219 58.5631 6.98409 57.7906 6.98409 57.0001C6.98409 56.2111 6.61219 55.4371 5.96092 54.8791C5.3114 54.3196 4.41045 54.0001 3.49204 54.0001C2.57189 54.0001 1.67269 54.3196 1.02142 54.8791C0.371903 55.4371 0 56.2111 0 57.0001C0 57.7906 0.371903 58.5631 1.02142 59.1211C1.67269 59.6806 2.57189 60.0001 3.49204 60.0001Z" fill="#130D3A"/>
<path fill-rule="evenodd" clip-rule="evenodd" d="M41.8954 60H41.9129C43.8374 60 45.3962 58.656 45.3962 57C45.3962 55.344 43.8374 54 41.9129 54H41.8954C39.9726 54 38.4121 55.344 38.4121 57C38.4121 58.656 39.9726 60 41.8954 60Z" fill="#130D3A"/>
<path fill-rule="evenodd" clip-rule="evenodd" d="M23.2724 60H23.2898C25.2126 60 26.7732 58.656 26.7732 57C26.7732 55.344 25.2126 54 23.2898 54H23.2724C21.3496 54 19.7891 55.344 19.7891 57C19.7891 58.656 21.3496 60 23.2724 60Z" fill="#130D3A"/>
<path fill-rule="evenodd" clip-rule="evenodd" d="M61.6932 60C62.6116 60 63.5126 59.6805 64.1621 59.121C64.8134 58.563 65.1853 57.7905 65.1853 57C65.1853 56.211 64.8134 55.437 64.1621 54.879C63.5126 54.3195 62.6116 54 61.6932 54C60.7731 54 59.8739 54.3195 59.2226 54.879C58.5731 55.437 58.2012 56.211 58.2012 57C58.2012 57.7905 58.5731 58.563 59.2226 59.121C59.8739 59.6805 60.7731 60 61.6932 60Z" fill="#130D3A"/>
<path fill-rule="evenodd" clip-rule="evenodd" d="M81.4803 60C82.4005 60 83.2997 59.6805 83.9509 59.121C84.6005 58.563 84.9724 57.7905 84.9724 57C84.9724 56.211 84.6005 55.437 83.9509 54.879C83.2997 54.3195 82.4005 54 81.4803 54C80.5619 54 79.661 54.3195 79.0115 54.879C78.3602 55.437 77.9883 56.211 77.9883 57C77.9883 57.7905 78.3602 58.563 79.0115 59.121C79.661 59.6805 80.5619 60 81.4803 60Z" fill="#130D3A"/>
<path fill-rule="evenodd" clip-rule="evenodd" d="M119.886 60H119.903C121.828 60 123.386 58.656 123.386 57C123.386 55.344 121.828 54 119.903 54H119.886C117.963 54 116.402 55.344 116.402 57C116.402 58.656 117.963 60 119.886 60Z" fill="#130D3A"/>
<path fill-rule="evenodd" clip-rule="evenodd" d="M100.097 60H100.114C102.037 60 103.597 58.656 103.597 57C103.597 55.344 102.037 54 100.114 54H100.097C98.1738 54 96.6133 55.344 96.6133 57C96.6133 58.656 98.1738 60 100.097 60Z" fill="#130D3A"/>
<mask id="mask4_111_2865" style="mask-type:luminance" maskUnits="userSpaceOnUse" x="135" y="53" width="8" height="7">
<path fill-rule="evenodd" clip-rule="evenodd" d="M135.379 53.2214H142.828V59.6214H135.379V53.2214Z" fill="white"/>
</mask>
<g mask="url(#mask4_111_2865)">
<path fill-rule="evenodd" clip-rule="evenodd" d="M139.104 59.6214C140.083 59.6214 141.044 59.2806 141.737 58.6838C142.432 58.0886 142.829 57.2646 142.829 56.4214C142.829 55.5798 142.432 54.7542 141.737 54.159C141.044 53.5622 140.083 53.2214 139.104 53.2214C138.122 53.2214 137.163 53.5622 136.468 54.159C135.776 54.7542 135.379 55.5798 135.379 56.4214C135.379 57.2646 135.776 58.0886 136.468 58.6838C137.163 59.2806 138.122 59.6214 139.104 59.6214Z" fill="#130D3A"/>
</g>
<path fill-rule="evenodd" clip-rule="evenodd" d="M3.49204 73.0001C4.41045 73.0001 5.3114 72.6806 5.96092 72.1226C6.61219 71.5631 6.98409 70.7906 6.98409 70.0001C6.98409 69.2111 6.61219 68.4371 5.96092 67.8791C5.3114 67.3196 4.41045 67.0001 3.49204 67.0001C2.57189 67.0001 1.67269 67.3196 1.02142 67.8791C0.371903 68.4371 0 69.2111 0 70.0001C0 70.7906 0.371903 71.5631 1.02142 72.1226C1.67269 72.6806 2.57189 73.0001 3.49204 73.0001Z" fill="#130D3A"/>
<path fill-rule="evenodd" clip-rule="evenodd" d="M41.8954 73H41.9129C43.8374 73 45.3962 71.656 45.3962 70C45.3962 68.344 43.8374 67 41.9129 67H41.8954C39.9726 67 38.4121 68.344 38.4121 70C38.4121 71.656 39.9726 73 41.8954 73Z" fill="#130D3A"/>
<path fill-rule="evenodd" clip-rule="evenodd" d="M23.2724 73H23.2898C25.2126 73 26.7732 71.656 26.7732 70C26.7732 68.344 25.2126 67 23.2898 67H23.2724C21.3496 67 19.7891 68.344 19.7891 70C19.7891 71.656 21.3496 73 23.2724 73Z" fill="#130D3A"/>
<path fill-rule="evenodd" clip-rule="evenodd" d="M61.6932 73C62.6116 73 63.5126 72.6805 64.1621 72.1225C64.8134 71.563 65.1853 70.7905 65.1853 70C65.1853 69.211 64.8134 68.437 64.1621 67.879C63.5126 67.3195 62.6116 67 61.6932 67C60.7731 67 59.8739 67.3195 59.2226 67.879C58.5731 68.437 58.2012 69.211 58.2012 70C58.2012 70.7905 58.5731 71.563 59.2226 72.1225C59.8739 72.6805 60.7731 73 61.6932 73Z" fill="#130D3A"/>
<path fill-rule="evenodd" clip-rule="evenodd" d="M81.4803 73C82.4005 73 83.2997 72.6805 83.9509 72.1225C84.6005 71.563 84.9724 70.7905 84.9724 70C84.9724 69.211 84.6005 68.437 83.9509 67.879C83.2997 67.3195 82.4005 67 81.4803 67C80.5619 67 79.661 67.3195 79.0115 67.879C78.3602 68.437 77.9883 69.211 77.9883 70C77.9883 70.7905 78.3602 71.563 79.0115 72.1225C79.661 72.6805 80.5619 73 81.4803 73Z" fill="#130D3A"/>
<path fill-rule="evenodd" clip-rule="evenodd" d="M119.886 73H119.903C121.828 73 123.386 71.656 123.386 70C123.386 68.344 121.828 67 119.903 67H119.886C117.963 67 116.402 68.344 116.402 70C116.402 71.656 117.963 73 119.886 73Z" fill="#130D3A"/>
<path fill-rule="evenodd" clip-rule="evenodd" d="M100.097 73H100.114C102.037 73 103.597 71.656 103.597 70C103.597 68.344 102.037 67 100.114 67H100.097C98.1738 67 96.6133 68.344 96.6133 70C96.6133 71.656 98.1738 73 100.097 73Z" fill="#130D3A"/>
<mask id="mask5_111_2865" style="mask-type:luminance" maskUnits="userSpaceOnUse" x="135" y="66" width="8" height="7">
<path fill-rule="evenodd" clip-rule="evenodd" d="M135.379 66.5659H142.828V72.9659H135.379V66.5659Z" fill="white"/>
</mask>
<g mask="url(#mask5_111_2865)">
<path fill-rule="evenodd" clip-rule="evenodd" d="M139.104 72.9659C140.083 72.9659 141.044 72.6251 141.737 72.0299C142.432 71.4331 142.829 70.6091 142.829 69.7659C142.829 68.9243 142.432 68.0987 141.737 67.5035C141.044 66.9067 140.083 66.5659 139.104 66.5659C138.122 66.5659 137.163 66.9067 136.468 67.5035C135.776 68.0987 135.379 68.9243 135.379 69.7659C135.379 70.6091 135.776 71.4331 136.468 72.0299C137.163 72.6251 138.122 72.9659 139.104 72.9659Z" fill="#130D3A"/>
</g>
<path fill-rule="evenodd" clip-rule="evenodd" d="M3.49204 86C4.41045 86 5.3114 85.6805 5.96092 85.121C6.61219 84.563 6.98409 83.7905 6.98409 83C6.98409 82.211 6.61219 81.437 5.96092 80.879C5.3114 80.3195 4.41045 80 3.49204 80C2.57189 80 1.67269 80.3195 1.02142 80.879C0.371903 81.437 0 82.211 0 83C0 83.7905 0.371903 84.563 1.02142 85.121C1.67269 85.6805 2.57189 86 3.49204 86Z" fill="#130D3A"/>
<path fill-rule="evenodd" clip-rule="evenodd" d="M41.8954 86H41.9129C43.8374 86 45.3962 84.656 45.3962 83C45.3962 81.344 43.8374 80 41.9129 80H41.8954C39.9726 80 38.4121 81.344 38.4121 83C38.4121 84.656 39.9726 86 41.8954 86Z" fill="#130D3A"/>
<path fill-rule="evenodd" clip-rule="evenodd" d="M23.2724 86H23.2898C25.2126 86 26.7732 84.656 26.7732 83C26.7732 81.344 25.2126 80 23.2898 80H23.2724C21.3496 80 19.7891 81.344 19.7891 83C19.7891 84.656 21.3496 86 23.2724 86Z" fill="#130D3A"/>
<path fill-rule="evenodd" clip-rule="evenodd" d="M61.6932 86C62.6116 86 63.5126 85.6805 64.1621 85.121C64.8134 84.563 65.1853 83.7905 65.1853 83C65.1853 82.211 64.8134 81.437 64.1621 80.879C63.5126 80.3195 62.6116 80 61.6932 80C60.7731 80 59.8739 80.3195 59.2226 80.879C58.5731 81.437 58.2012 82.211 58.2012 83C58.2012 83.7905 58.5731 84.563 59.2226 85.121C59.8739 85.6805 60.7731 86 61.6932 86Z" fill="#130D3A"/>
<path fill-rule="evenodd" clip-rule="evenodd" d="M81.4803 86C82.4005 86 83.2997 85.6805 83.9509 85.121C84.6005 84.563 84.9724 83.7905 84.9724 83C84.9724 82.211 84.6005 81.437 83.9509 80.879C83.2997 80.3195 82.4005 80 81.4803 80C80.5619 80 79.661 80.3195 79.0115 80.879C78.3602 81.437 77.9883 82.211 77.9883 83C77.9883 83.7905 78.3602 84.563 79.0115 85.121C79.661 85.6805 80.5619 86 81.4803 86Z" fill="#130D3A"/>
<path fill-rule="evenodd" clip-rule="evenodd" d="M119.886 86H119.903C121.828 86 123.386 84.656 123.386 83C123.386 81.344 121.828 80 119.903 80H119.886C117.963 80 116.402 81.344 116.402 83C116.402 84.656 117.963 86 119.886 86Z" fill="#130D3A"/>
<path fill-rule="evenodd" clip-rule="evenodd" d="M100.097 86H100.114C102.037 86 103.597 84.656 103.597 83C103.597 81.344 102.037 80 100.114 80H100.097C98.1738 80 96.6133 81.344 96.6133 83C96.6133 84.656 98.1738 86 100.097 86Z" fill="#130D3A"/>
<mask id="mask6_111_2865" style="mask-type:luminance" maskUnits="userSpaceOnUse" x="135" y="79" width="8" height="8">
<path fill-rule="evenodd" clip-rule="evenodd" d="M135.379 79.9104H142.828V86.3104H135.379V79.9104Z" fill="white"/>
</mask>
<g mask="url(#mask6_111_2865)">
<path fill-rule="evenodd" clip-rule="evenodd" d="M139.104 86.3104C140.083 86.3104 141.044 85.9696 141.737 85.3728C142.432 84.7776 142.829 83.9536 142.829 83.1104C142.829 82.2688 142.432 81.4432 141.737 80.848C141.044 80.2512 140.083 79.9104 139.104 79.9104C138.122 79.9104 137.163 80.2512 136.468 80.848C135.776 81.4432 135.379 82.2688 135.379 83.1104C135.379 83.9536 135.776 84.7776 136.468 85.3728C137.163 85.9696 138.122 86.3104 139.104 86.3104Z" fill="#130D3A"/>
</g>
<path fill-rule="evenodd" clip-rule="evenodd" d="M3.49204 99C4.41045 99 5.3114 98.6805 5.96092 98.1225C6.61219 97.563 6.98409 96.7905 6.98409 96C6.98409 95.211 6.61219 94.437 5.96092 93.879C5.3114 93.3195 4.41045 93 3.49204 93C2.57189 93 1.67269 93.3195 1.02142 93.879C0.371903 94.437 0 95.211 0 96C0 96.7905 0.371903 97.563 1.02142 98.1225C1.67269 98.6805 2.57189 99 3.49204 99Z" fill="#130D3A"/>
<path fill-rule="evenodd" clip-rule="evenodd" d="M41.8954 99H41.9129C43.8374 99 45.3962 97.6575 45.3962 96C45.3962 94.344 43.8374 93 41.9129 93H41.8954C39.9726 93 38.4121 94.344 38.4121 96C38.4121 97.6575 39.9726 99 41.8954 99Z" fill="#130D3A"/>
<path fill-rule="evenodd" clip-rule="evenodd" d="M23.2724 99H23.2898C25.2126 99 26.7732 97.6575 26.7732 96C26.7732 94.344 25.2126 93 23.2898 93H23.2724C21.3496 93 19.7891 94.344 19.7891 96C19.7891 97.6575 21.3496 99 23.2724 99Z" fill="#130D3A"/>
<path fill-rule="evenodd" clip-rule="evenodd" d="M61.6932 99C62.6116 99 63.5126 98.6805 64.1621 98.1225C64.8134 97.563 65.1853 96.7905 65.1853 96C65.1853 95.211 64.8134 94.437 64.1621 93.879C63.5126 93.3195 62.6116 93 61.6932 93C60.7731 93 59.8739 93.3195 59.2226 93.879C58.5731 94.437 58.2012 95.211 58.2012 96C58.2012 96.7905 58.5731 97.563 59.2226 98.1225C59.8739 98.6805 60.7731 99 61.6932 99Z" fill="#130D3A"/>
<path fill-rule="evenodd" clip-rule="evenodd" d="M81.4803 99C82.4005 99 83.2997 98.6805 83.9509 98.1225C84.6005 97.563 84.9724 96.7905 84.9724 96C84.9724 95.211 84.6005 94.437 83.9509 93.879C83.2997 93.3195 82.4005 93 81.4803 93C80.5619 93 79.661 93.3195 79.0115 93.879C78.3602 94.437 77.9883 95.211 77.9883 96C77.9883 96.7905 78.3602 97.563 79.0115 98.1225C79.661 98.6805 80.5619 99 81.4803 99Z" fill="#130D3A"/>
<path fill-rule="evenodd" clip-rule="evenodd" d="M119.886 99H119.903C121.828 99 123.386 97.6575 123.386 96C123.386 94.344 121.828 93 119.903 93H119.886C117.963 93 116.402 94.344 116.402 96C116.402 97.6575 117.963 99 119.886 99Z" fill="#130D3A"/>
<path fill-rule="evenodd" clip-rule="evenodd" d="M100.097 99H100.114C102.037 99 103.597 97.6575 103.597 96C103.597 94.344 102.037 93 100.114 93H100.097C98.1738 93 96.6133 94.344 96.6133 96C96.6133 97.6575 98.1738 99 100.097 99Z" fill="#130D3A"/>
<mask id="mask7_111_2865" style="mask-type:luminance" maskUnits="userSpaceOnUse" x="135" y="93" width="8" height="7">
<path fill-rule="evenodd" clip-rule="evenodd" d="M135.379 93.2551H142.828V99.6551H135.379V93.2551Z" fill="white"/>
</mask>
<g mask="url(#mask7_111_2865)">
<path fill-rule="evenodd" clip-rule="evenodd" d="M139.104 99.6551C140.083 99.6551 141.044 99.3143 141.737 98.7191C142.432 98.1223 142.829 97.2983 142.829 96.4551C142.829 95.6135 142.432 94.7879 141.737 94.1927C141.044 93.5959 140.083 93.2551 139.104 93.2551C138.122 93.2551 137.163 93.5959 136.468 94.1927C135.776 94.7879 135.379 95.6135 135.379 96.4551C135.379 97.2983 135.776 98.1223 136.468 98.7191C137.163 99.3143 138.122 99.6551 139.104 99.6551Z" fill="#130D3A"/>
</g>
<mask id="mask8_111_2865" style="mask-type:luminance" maskUnits="userSpaceOnUse" x="0" y="106" width="7" height="6">
<path fill-rule="evenodd" clip-rule="evenodd" d="M0 106H6.98409V112H0V106Z" fill="white"/>
</mask>
<g mask="url(#mask8_111_2865)">
<path fill-rule="evenodd" clip-rule="evenodd" d="M3.49204 112C4.41045 112 5.3114 111.681 5.96092 111.121C6.61219 110.563 6.98409 109.789 6.98409 109C6.98409 108.21 6.61219 107.437 5.96092 106.878C5.3114 106.32 4.41045 106 3.49204 106C2.57189 106 1.67269 106.32 1.02142 106.878C0.371903 107.437 0 108.21 0 109C0 109.789 0.371903 110.563 1.02142 111.121C1.67269 111.681 2.57189 112 3.49204 112Z" fill="#130D3A"/>
</g>
<mask id="mask9_111_2865" style="mask-type:luminance" maskUnits="userSpaceOnUse" x="38" y="106" width="8" height="6">
<path fill-rule="evenodd" clip-rule="evenodd" d="M38.4043 106H45.8726V112H38.4043V106Z" fill="white"/>
</mask>
<g mask="url(#mask9_111_2865)">
<path fill-rule="evenodd" clip-rule="evenodd" d="M42.1291 112H42.1478C44.2057 112 45.8726 110.656 45.8726 109C45.8726 107.343 44.2057 106 42.1478 106H42.1291C40.073 106 38.4043 107.343 38.4043 109C38.4043 110.656 40.073 112 42.1291 112Z" fill="#130D3A"/>
</g>
<mask id="mask10_111_2865" style="mask-type:luminance" maskUnits="userSpaceOnUse" x="19" y="106" width="8" height="6">
<path fill-rule="evenodd" clip-rule="evenodd" d="M19.1973 106H26.6656V112H19.1973V106Z" fill="white"/>
</mask>
<g mask="url(#mask10_111_2865)">
<path fill-rule="evenodd" clip-rule="evenodd" d="M22.9221 112H22.9407C24.9969 112 26.6656 110.656 26.6656 109C26.6656 107.343 24.9969 106 22.9407 106H22.9221C20.866 106 19.1973 107.343 19.1973 109C19.1973 110.656 20.866 112 22.9221 112Z" fill="#130D3A"/>
</g>
<mask id="mask11_111_2865" style="mask-type:luminance" maskUnits="userSpaceOnUse" x="57" y="106" width="9" height="6">
<path fill-rule="evenodd" clip-rule="evenodd" d="M57.6191 106H65.0688V112H57.6191V106Z" fill="white"/>
</mask>
<g mask="url(#mask11_111_2865)">
<path fill-rule="evenodd" clip-rule="evenodd" d="M61.344 112C62.3236 112 63.2846 111.681 63.9775 111.121C64.6721 110.563 65.0688 109.789 65.0688 109C65.0688 108.21 64.6721 107.437 63.9775 106.878C63.2846 106.32 62.3236 106 61.344 106C60.3625 106 59.4033 106.32 58.7087 106.878C58.0158 107.437 57.6191 108.21 57.6191 109C57.6191 109.789 58.0158 110.563 58.7087 111.121C59.4033 111.681 60.3625 112 61.344 112Z" fill="#130D3A"/>
</g>
<mask id="mask12_111_2865" style="mask-type:luminance" maskUnits="userSpaceOnUse" x="77" y="106" width="8" height="6">
<path fill-rule="evenodd" clip-rule="evenodd" d="M77.293 106H84.7427V112H77.293V106Z" fill="white"/>
</mask>
<g mask="url(#mask12_111_2865)">
<path fill-rule="evenodd" clip-rule="evenodd" d="M81.0178 112C81.9993 112 82.9585 111.681 83.6531 111.121C84.346 110.563 84.7427 109.789 84.7427 109C84.7427 108.21 84.346 107.437 83.6531 106.878C82.9585 106.32 81.9993 106 81.0178 106C80.0382 106 79.0772 106.32 78.3843 106.878C77.6897 107.437 77.293 108.21 77.293 109C77.293 109.789 77.6897 110.563 78.3843 111.121C79.0772 111.681 80.0382 112 81.0178 112Z" fill="#130D3A"/>
</g>
<mask id="mask13_111_2865" style="mask-type:luminance" maskUnits="userSpaceOnUse" x="115" y="106" width="9" height="6">
<path fill-rule="evenodd" clip-rule="evenodd" d="M115.695 106H123.164V112H115.695V106Z" fill="white"/>
</mask>
<g mask="url(#mask13_111_2865)">
<path fill-rule="evenodd" clip-rule="evenodd" d="M119.42 112H119.439C121.497 112 123.164 110.656 123.164 109C123.164 107.343 121.497 106 119.439 106H119.42C117.364 106 115.695 107.343 115.695 109C115.695 110.656 117.364 112 119.42 112Z" fill="#130D3A"/>
</g>
<mask id="mask14_111_2865" style="mask-type:luminance" maskUnits="userSpaceOnUse" x="96" y="106" width="8" height="6">
<path fill-rule="evenodd" clip-rule="evenodd" d="M96.4902 106H103.959V112H96.4902V106Z" fill="white"/>
</mask>
<g mask="url(#mask14_111_2865)">
<path fill-rule="evenodd" clip-rule="evenodd" d="M100.215 112H100.234C102.29 112 103.959 110.656 103.959 109C103.959 107.343 102.29 106 100.234 106H100.215C98.159 106 96.4902 107.343 96.4902 109C96.4902 110.656 98.159 112 100.215 112Z" fill="#130D3A"/>
</g>
<mask id="mask15_111_2865" style="mask-type:luminance" maskUnits="userSpaceOnUse" x="135" y="106" width="8" height="6">
<path fill-rule="evenodd" clip-rule="evenodd" d="M135.379 106H142.828V112H135.379V106Z" fill="white"/>
</mask>
<g mask="url(#mask15_111_2865)">
<path fill-rule="evenodd" clip-rule="evenodd" d="M139.104 112C140.083 112 141.044 111.681 141.737 111.121C142.432 110.563 142.829 109.789 142.829 109C142.829 108.21 142.432 107.437 141.737 106.878C141.044 106.32 140.083 106 139.104 106C138.122 106 137.163 106.32 136.468 106.878C135.776 107.437 135.379 108.21 135.379 109C135.379 109.789 135.776 110.563 136.468 111.121C137.163 111.681 138.122 112 139.104 112Z" fill="#130D3A"/>
</g>
</svg>
