<svg width="92" height="79" viewBox="0 0 92 79" fill="none" xmlns="http://www.w3.org/2000/svg">
<rect opacity="0.1" width="91.9572" height="79" rx="15" fill="#68D585"/>
<path opacity="0.5" d="M65.3757 39C63.6265 45.7571 55.1719 50.8988 45.0292 50.8988C43.5911 50.8988 42.1558 50.7875 40.7402 50.5762C44.218 53.1631 49.6023 54.468 55.1665 53.761L62.6139 56.9199C62.7407 56.9733 62.8783 57 63.0159 57C63.1805 57 63.3442 56.9619 63.4889 56.8864C63.7533 56.7476 63.9152 56.502 63.9152 56.2374V50.4191C66.2382 48.6315 67.5126 46.3771 67.5126 44.035C67.5126 42.2443 66.7598 40.5146 65.3757 39Z" fill="#68D585"/>
<path d="M44.8137 23C34.2228 23 25.6074 28.8198 25.6074 35.9737C25.6074 38.7233 26.8705 41.3448 29.2658 43.5747V51.2368C29.2658 51.5017 29.4304 51.7466 29.6993 51.8863C29.8465 51.9618 30.013 52 30.1803 52C30.3203 52 30.4602 51.9733 30.5892 51.9199L39.1222 48.3597C40.9834 48.7497 42.8958 48.9474 44.8137 48.9474C55.4045 48.9474 64.0199 43.1275 64.0199 35.9737C64.0199 28.8198 55.4045 23 44.8137 23Z" fill="#68D585"/>
</svg>
