<svg width="92" height="79" viewBox="0 0 92 79" fill="none" xmlns="http://www.w3.org/2000/svg">
<rect opacity="0.1" width="91.9572" height="79" rx="15" fill="#473BF0"/>
<path fill-rule="evenodd" clip-rule="evenodd" d="M34.9199 31.6786C34.9199 26.543 39.3703 21 46.5601 21C53.7498 21 58.2002 26.543 58.2002 31.6786C58.2002 39.2891 52.158 44 46.5601 44C40.9621 44 34.9199 39.2891 34.9199 31.6786ZM36.9017 32.5444C37.3226 38.6262 42.1048 42.3571 46.5601 42.3571C51.0153 42.3571 55.7965 38.627 56.2194 32.5468C53.3337 32.215 50.637 31.1693 48.4729 29.5297C45.7996 31.5619 42.39 32.6733 38.7718 32.6733C38.1539 32.6733 37.5312 32.6216 36.9017 32.5444Z" fill="#473BF0"/>
<path opacity="0.5" d="M63.9937 48.1827L53.9075 43C51.5436 44.7478 48.718 45.7089 45.9777 45.7089C43.2374 45.7089 40.4117 44.7478 38.0478 43L27.9616 48.1827C26.5095 48.9287 25.6074 50.2935 25.6074 51.7439V58.1693C25.6074 58.6287 26.042 59 26.5774 59H45.0077V50.6931C45.0077 50.2337 45.4413 49.8624 45.9777 49.8624C46.5141 49.8624 46.9477 50.2337 46.9477 50.6931V59H65.3779C65.9134 59 66.3479 58.6287 66.3479 58.1693V51.7439C66.3479 50.2935 65.4458 48.9287 63.9937 48.1827Z" fill="#473BF0"/>
</svg>
